<mxfile host="app.diagrams.net" modified="2024-07-15T18:15:30.298Z" agent="Mozilla/5.0 (Windows NT 10.0; Win64; x64) AppleWebKit/537.36 (KHTML, like Gecko) Chrome/126.0.0.0 Safari/537.36" etag="8UKaPDwQM90aEIbFjwLN" version="24.6.5" type="device">
  <diagram name="Page-1" id="zhX3WjsNK-sw1TE3LIaX">
    <mxGraphModel dx="800" dy="425" grid="0" gridSize="10" guides="1" tooltips="1" connect="1" arrows="1" fold="1" page="1" pageScale="1" pageWidth="827" pageHeight="1169" math="0" shadow="0">
      <root>
        <mxCell id="0" />
        <mxCell id="1" parent="0" />
        <mxCell id="bLushonLKl2LiLOlrxaY-1" value="" style="rounded=0;whiteSpace=wrap;html=1;" vertex="1" parent="1">
          <mxGeometry x="172" y="93" width="526" height="298" as="geometry" />
        </mxCell>
        <mxCell id="bLushonLKl2LiLOlrxaY-2" value="" style="endArrow=none;html=1;rounded=0;exitX=-0.006;exitY=0.132;exitDx=0;exitDy=0;exitPerimeter=0;entryX=1.002;entryY=0.137;entryDx=0;entryDy=0;entryPerimeter=0;" edge="1" parent="1" source="bLushonLKl2LiLOlrxaY-1" target="bLushonLKl2LiLOlrxaY-1">
          <mxGeometry width="50" height="50" relative="1" as="geometry">
            <mxPoint x="389" y="324" as="sourcePoint" />
            <mxPoint x="439" y="274" as="targetPoint" />
          </mxGeometry>
        </mxCell>
        <mxCell id="bLushonLKl2LiLOlrxaY-3" value="" style="endArrow=none;html=1;rounded=0;exitX=0.01;exitY=0.941;exitDx=0;exitDy=0;exitPerimeter=0;" edge="1" parent="1" target="bLushonLKl2LiLOlrxaY-1">
          <mxGeometry width="50" height="50" relative="1" as="geometry">
            <mxPoint x="177.55999999999995" y="198.75199999999995" as="sourcePoint" />
            <mxPoint x="465" y="223" as="targetPoint" />
          </mxGeometry>
        </mxCell>
        <mxCell id="bLushonLKl2LiLOlrxaY-6" value="&lt;font style=&quot;font-size: 14px;&quot;&gt;System&lt;/font&gt;" style="text;html=1;align=center;verticalAlign=middle;whiteSpace=wrap;rounded=0;" vertex="1" parent="1">
          <mxGeometry x="332" y="98" width="220" height="29" as="geometry" />
        </mxCell>
        <mxCell id="bLushonLKl2LiLOlrxaY-9" value="" style="endArrow=none;html=1;rounded=0;entryX=1.003;entryY=0.342;entryDx=0;entryDy=0;entryPerimeter=0;" edge="1" parent="1" target="bLushonLKl2LiLOlrxaY-1">
          <mxGeometry width="50" height="50" relative="1" as="geometry">
            <mxPoint x="171" y="195" as="sourcePoint" />
            <mxPoint x="382" y="264" as="targetPoint" />
          </mxGeometry>
        </mxCell>
        <mxCell id="bLushonLKl2LiLOlrxaY-10" value="&lt;font face=&quot;Times New Roman&quot; style=&quot;font-size: 14px;&quot;&gt;+ in: InputStream&lt;br&gt;&amp;nbsp; + out : PrintStream&lt;br&gt;+ err: PrintStream&lt;/font&gt;&lt;br&gt;&lt;div&gt;&lt;br&gt;&lt;/div&gt;" style="text;html=1;align=center;verticalAlign=middle;whiteSpace=wrap;rounded=0;" vertex="1" parent="1">
          <mxGeometry x="183" y="156" width="127" height="30" as="geometry" />
        </mxCell>
        <mxCell id="bLushonLKl2LiLOlrxaY-17" value="+ currentTimeMillis(): long&lt;br&gt;&lt;span style=&quot;background-color: initial;&quot;&gt;+&amp;nbsp; nanoTime(): long&lt;br&gt;&lt;/span&gt;+ arraycopy(src: Object, srcPos: int, dest:&amp;nbsp; Object, destPos: int, length: int): void&lt;br&gt;&lt;span style=&quot;background-color: initial;&quot;&gt;+ exist(status: int) : void&lt;br&gt;&lt;div style=&quot;&quot;&gt;&lt;span style=&quot;background-color: initial;&quot;&gt;+ gc (): void&lt;br&gt;&lt;/span&gt;&lt;div style=&quot;&quot;&gt;+ getenv(name: String): String&amp;nbsp;&lt;/div&gt;&lt;div style=&quot;&quot;&gt;+ getProperty(key: String): String&amp;nbsp;&lt;/div&gt;&lt;div style=&quot;&quot;&gt;+ getProperty(key: String, def: String): String&amp;nbsp;&lt;br&gt;&lt;span style=&quot;background-color: initial;&quot;&gt;+ clearProperty(key: String): String&amp;nbsp;&lt;/span&gt;&lt;/div&gt;&lt;div style=&quot;&quot;&gt;+ setProperty(key: String, value: String): String&amp;nbsp;&lt;/div&gt;&lt;div style=&quot;&quot;&gt;+ console(): Console&amp;nbsp; &amp;nbsp;&lt;/div&gt;&lt;span style=&quot;background-color: initial;&quot;&gt;&lt;br&gt;&lt;/span&gt;&lt;/div&gt;&lt;/span&gt;" style="text;html=1;align=left;verticalAlign=middle;whiteSpace=wrap;rounded=0;" vertex="1" parent="1">
          <mxGeometry x="183" y="272" width="750" height="48" as="geometry" />
        </mxCell>
      </root>
    </mxGraphModel>
  </diagram>
</mxfile>
